<svg width="1200" height="420" viewBox="0 0 1200 420" fill="none" xmlns="http://www.w3.org/2000/svg">
  <defs>
    <linearGradient id="mcBg" x1="30" y1="18" x2="1168" y2="405" gradientUnits="userSpaceOnUse">
      <stop stop-color="#040704"/>
      <stop offset="0.55" stop-color="#0B120A"/>
      <stop offset="1" stop-color="#151208"/>
    </linearGradient>
    <radialGradient id="mcGlow" cx="0" cy="0" r="1" gradientUnits="userSpaceOnUse" gradientTransform="translate(941 211) scale(405 315)">
      <stop stop-color="#6BE35F" stop-opacity="0.2"/>
      <stop offset="1" stop-color="#6BE35F" stop-opacity="0"/>
    </radialGradient>
    <linearGradient id="mcTitle" x1="62" y1="0" x2="641" y2="0" gradientUnits="userSpaceOnUse">
      <stop stop-color="#F2FFF0"/>
      <stop offset="0.72" stop-color="#C7F5C1"/>
      <stop offset="1" stop-color="#6BE35F"/>
    </linearGradient>
    <pattern id="mcGrid" width="32" height="32" patternUnits="userSpaceOnUse">
      <path d="M32 0H0V32" stroke="#8DFF7E" stroke-opacity="0.032"/>
    </pattern>
    <filter id="mcSoft" x="-60%" y="-100%" width="220%" height="300%">
      <feGaussianBlur stdDeviation="6" result="blur"/>
      <feMerge><feMergeNode in="blur"/><feMergeNode in="SourceGraphic"/></feMerge>
    </filter>
    <clipPath id="mcClip"><rect x="10" y="10" width="1180" height="400" rx="27"/></clipPath>
  </defs>

  <g clip-path="url(#mcClip)">
    <rect x="10" y="10" width="1180" height="400" rx="27" fill="url(#mcBg)"/>
    <rect x="10" y="10" width="1180" height="400" rx="27" fill="url(#mcGrid)"/>
    <rect x="10" y="10" width="1180" height="400" rx="27" fill="url(#mcGlow)"/>
    <g opacity="0.08" fill="#6BE35F">
      <rect x="1086" y="20" width="56" height="56"/><rect x="1030" y="76" width="56" height="56"/><rect x="1086" y="132" width="56" height="56"/>
      <rect x="974" y="20" width="56" height="56"/><rect x="1030" y="188" width="56" height="56"/>
    </g>

    <g transform="translate(62 48)" font-family="Consolas, Menlo, monospace">
      <rect width="128" height="28" rx="14" fill="#6BE35F" fill-opacity="0.09" stroke="#6BE35F" stroke-opacity="0.38"/>
      <text x="64" y="18" text-anchor="middle" fill="#A4F49C" font-size="10" font-weight="700" letter-spacing="1.8">FEATURED / 04</text>
      <circle cx="161" cy="14" r="4" fill="#6BE35F" filter="url(#mcSoft)"><animate attributeName="opacity" values="1;.28;1" dur="1.5s" repeatCount="indefinite"/></circle>
      <text x="176" y="18" fill="#71846D" font-size="10" font-weight="700" letter-spacing="1.35">PUBLIC MIRROR · UPSTREAM REALTM · v22.3</text>

      <text y="88" fill="url(#mcTitle)" font-family="Arial, Helvetica, sans-serif" font-size="48" font-weight="900" letter-spacing="-2">MC SERVER INSTALLER</text>
      <text y="121" fill="#AAB6A7" font-size="14" letter-spacing="0.45">ONE TERMINAL. SIX SERVER FLAVORS.</text>

      <text y="166" fill="#F1F8EF" font-size="16" font-weight="700">Select. Provision. Launch. Repeat.</text>
      <text y="192" fill="#788075" font-size="13">Beginner-friendly Linux automation for Vanilla, Forge,</text>
      <text y="213" fill="#788075" font-size="13">Spigot, Paper, Leaf and Arclight server instances.</text>

      <g transform="translate(0 241)" font-size="10" font-weight="700" letter-spacing="1">
        <g><rect width="82" height="28" rx="7" fill="#101A0E" stroke="#34562E"/><text x="41" y="18" text-anchor="middle" fill="#B2F5AA">BASH</text></g>
        <g transform="translate(92)"><rect width="86" height="28" rx="7" fill="#101A0E" stroke="#34562E"/><text x="43" y="18" text-anchor="middle" fill="#B2F5AA">LINUX</text></g>
        <g transform="translate(188)"><rect width="82" height="28" rx="7" fill="#101A0E" stroke="#34562E"/><text x="41" y="18" text-anchor="middle" fill="#B2F5AA">JAVA</text></g>
        <g transform="translate(280)"><rect width="92" height="28" rx="7" fill="#101A0E" stroke="#34562E"/><text x="46" y="18" text-anchor="middle" fill="#B2F5AA">DIALOG</text></g>
      </g>

      <g transform="translate(0 302)">
        <path d="M0 0H526" stroke="#6BE35F" stroke-opacity="0.24"/>
        <text y="29" fill="#8BE981" font-size="11" font-weight="700" letter-spacing="1.6">OPEN INSTALLER</text>
        <path d="M132 24H172M166 18L172 24L166 30" stroke="#6BE35F" stroke-width="1.6" stroke-linecap="round" stroke-linejoin="round">
          <animateTransform attributeName="transform" type="translate" values="0 0;7 0;0 0" dur="1.45s" repeatCount="indefinite"/>
        </path>
      </g>
    </g>

    <g transform="translate(742 66)" font-family="Consolas, Menlo, monospace">
      <rect width="402" height="298" rx="18" fill="#070B06" stroke="#426A39"/>
      <path d="M0 44H402" stroke="#263D22"/>
      <circle cx="21" cy="22" r="4" fill="#6BE35F"/><circle cx="37" cy="22" r="4" fill="#3A6334"/><circle cx="53" cy="22" r="4" fill="#223D1F"/>
      <text x="201" y="26" text-anchor="middle" fill="#63795E" font-size="9" letter-spacing="1.45">ROOT@SERVER / MCSERVER_INSTALLER.SH</text>

      <g transform="translate(18 59)">
        <rect width="366" height="218" rx="9" fill="#0A1009" stroke="#314A2D"/>
        <text x="183" y="25" text-anchor="middle" fill="#DDF6D9" font-size="11" font-weight="700">SELECT SERVER SOFTWARE</text>
        <path d="M20 37H346" stroke="#263A23"/>

        <rect x="20" y="48" width="326" height="23" rx="4" fill="#6BE35F" fill-opacity="0.13" stroke="#6BE35F" stroke-opacity="0.45">
          <animate attributeName="y" values="48;76;104;132;160;188;48" keyTimes="0;.16;.32;.48;.64;.8;1" dur="7s" repeatCount="indefinite"/>
        </rect>
        <g font-size="11">
          <text x="34" y="64" fill="#CBF2C6">01</text><text x="76" y="64" fill="#F0F7EF">VANILLA</text><text x="329" y="64" text-anchor="end" fill="#6BE35F">1.7—26.x</text>
          <text x="34" y="92" fill="#82A17D">02</text><text x="76" y="92" fill="#D2DBD0">FORGE</text><text x="329" y="92" text-anchor="end" fill="#758D71">MODDED</text>
          <text x="34" y="120" fill="#82A17D">03</text><text x="76" y="120" fill="#D2DBD0">SPIGOT</text><text x="329" y="120" text-anchor="end" fill="#758D71">BUILDTOOLS</text>
          <text x="34" y="148" fill="#82A17D">04</text><text x="76" y="148" fill="#D2DBD0">PAPER</text><text x="329" y="148" text-anchor="end" fill="#758D71">API v3</text>
          <text x="34" y="176" fill="#82A17D">05</text><text x="76" y="176" fill="#D2DBD0">LEAF</text><text x="329" y="176" text-anchor="end" fill="#758D71">PERFORMANCE</text>
          <text x="34" y="204" fill="#82A17D">06</text><text x="76" y="204" fill="#D2DBD0">ARCLIGHT</text><text x="329" y="204" text-anchor="end" fill="#758D71">HYBRID</text>
        </g>
      </g>
    </g>
  </g>

  <rect x="10.75" y="10.75" width="1178.5" height="398.5" rx="26.25" stroke="#6BE35F" stroke-opacity="0.43" stroke-width="1.5"/>
</svg>
